<?xml version="1.0" encoding="utf-8"?>
<!-- Generator: Adobe Illustrator 22.0.1, SVG Export Plug-In . SVG Version: 6.00 Build 0)  -->
<svg version="1.1" id="Layer_1" xmlns="http://www.w3.org/2000/svg" xmlns:xlink="http://www.w3.org/1999/xlink" x="0px" y="0px"
	 viewBox="0 0 134.7 76.1" style="enable-background:new 0 0 134.7 76.1;" xml:space="preserve">
<style type="text/css">
	.st0{fill:#0093D0;}
	.st1{enable-background:new    ;}
	.st2{fill:#808285;}
</style>
<path d="M7.2,47.1L7.2,47.1h7.1c1.1,2.7,3.5,4.1,7.2,4.1c4.7,0,7-1.4,7-4.2c0-0.9-0.4-1.6-1.1-2.2c-0.7-0.6-1.6-1-2.6-1.2l-6.1-1.2
	C12,41.2,8.6,37.9,8.6,32.6c0-3,1.1-5.5,3.2-7.5c2.1-2.1,5.4-3.1,9.6-3.1c8.2-0.1,12.6,3.9,13.1,9.2l0,0h-6.9
	c-0.7-2.5-2.7-3.8-6.1-3.8c-4,0-6,1.3-6,3.8c0,1.8,1.6,3,4.9,3.6l7.2,1.5c5.6,1.2,8.4,4.4,8.4,9.6c0,3.7-1.4,6.5-4.3,8.3
	s-6.3,2.7-10.3,2.7c-3.4,0-6.5-0.7-9.1-2.1C9.8,53.4,7.3,50.6,7.2,47.1"/>
<path d="M72.7,16.2v5.7h-5.2c-1,0-1.9,0.2-2.7,0.5c-0.8,0.2-1.5,1-2.2,2.4c2.7,2.2,4,4.6,4,7.2c0,3-1.3,5.4-3.8,7.4
	c-2.5,2-5.8,2.9-9.9,2.9c-1.8,0-3.8-0.3-6.2-0.9c-1.6,0.7-2.3,1.8-2.3,3.3c0,0.8,0.4,1.6,1.1,2.3c0.8,0.7,1.9,1,3.4,1h10
	c3.4,0,6.1,0.9,8,2.7s2.9,3.9,2.9,6.5c0,3.2-1.5,5.8-4.4,7.9s-7.3,3.1-13,3.1c-10.8,0-16.3-3-16.3-9.1c0-3,1.6-5.3,4.9-6.8
	c-2.1-1.8-3.1-3.6-3.1-5.6c0-2.9,1.8-5.3,5.4-7c-3.1-1.9-4.7-4.5-4.7-7.8c0-2.8,1.1-5.2,3.4-7.1c2.3-2,5.7-3,10.4-3
	c2.1,0,4.3,0.2,6.5,0.7c1-4.3,3.7-6.4,8.1-6.4L72.7,16.2L72.7,16.2z M52.6,37.8c4.1,0,6.2-1.9,6.2-5.8c0-1.5-0.5-2.7-1.6-3.8
	c-1-1-2.5-1.5-4.5-1.5s-3.5,0.5-4.7,1.6c-1.1,1.1-1.6,2.4-1.6,4c0,1.6,0.5,3,1.6,4C49.2,37.3,50.7,37.8,52.6,37.8 M44.3,54.3
	c-1.1,1-1.6,2-1.6,2.9c0,1.5,0.9,2.9,2.7,4c1.8,1.2,4.7,1.8,8.7,1.8c5.8,0,8.7-1.5,8.7-4.5c0-1.1-0.5-1.9-1.5-2.5s-2.2-0.9-3.5-0.9
	h-8C48.2,55.2,46.4,54.9,44.3,54.3"/>
<rect x="72.7" y="21.9" width="7.6" height="34.9"/>
<rect x="72.7" y="8.3" class="st0" width="7.6" height="7.9"/>
<g class="st1">
	<path class="st2" d="M87.6,37.2h0.9v1.1h-0.9V37.2z M87.6,39.2h0.9v6h-0.9V39.2z"/>
	<path class="st2" d="M89.9,39.2h0.9v0.7h0c0.2-0.5,0.9-0.9,1.5-0.9c1.6,0,1.6,1.2,1.6,1.9v4.2h-0.9v-4.1c0-0.5,0-1.2-0.9-1.2
		c-0.5,0-1.2,0.3-1.2,1.2v4.1h-0.9V39.2z"/>
	<path class="st2" d="M95.3,37.5h0.9v1.7h1v0.7h-1v3.8c0,0.5,0.1,0.7,0.6,0.7c0.2,0,0.3,0,0.4,0v0.8c-0.1,0-0.4,0.1-0.8,0.1
		c-1,0-1.2-0.4-1.2-1.2v-4.1h-0.9v-0.7h0.9V37.5z"/>
</g>
<g class="st1">
	<path class="st2" d="M98.6,42.3c0,0.9,0,2.3,1.2,2.3c0.9,0,1-0.9,1-1.4h0.9c0,0.6-0.4,2.1-2,2.1c-1.5,0-2.1-1-2.1-3.1
		c0-1.5,0.3-3.2,2.1-3.2c1.8,0,2,1.6,2,2.9v0.4H98.6z M100.7,41.6v-0.3c0-0.7-0.2-1.5-1-1.5c-1,0-1.1,1.2-1.1,1.6v0.2H100.7z"/>
	<path class="st2" d="M102.8,37.2h0.9v8h-0.9V37.2z"/>
</g>
<g class="st1">
	<path class="st2" d="M104.8,37.2h0.9v8h-0.9V37.2z"/>
</g>
<g class="st1">
	<path class="st2" d="M107.1,37.2h0.9v1.1h-0.9V37.2z M107.1,39.2h0.9v6h-0.9V39.2z"/>
</g>
<g class="st1">
	<path class="st2" d="M113.1,44.8c0,1.8-0.8,2.4-2,2.4c-0.4,0-1.8,0-2-1.5h0.9c0,0.5,0.5,0.8,1,0.8c1.2,0,1.2-0.9,1.2-1.3v-0.8h0
		c-0.2,0.5-0.8,0.8-1.4,0.8c-1.7,0-1.9-2.2-1.9-3c0-1.6,0.4-3.2,2-3.2c0.6,0,1.2,0.4,1.3,0.9h0v-0.8h0.9V44.8z M109.9,42.2
		c0,1,0.1,2.2,1.1,2.2c1,0,1.2-1,1.2-2.2c0-1.2-0.2-2.3-1.2-2.3C110.2,39.9,109.9,40.8,109.9,42.2z"/>
	<path class="st2" d="M115.1,42.3c0,0.9,0,2.3,1.2,2.3c0.9,0,1-0.9,1-1.4h0.9c0,0.6-0.4,2.1-2,2.1c-1.5,0-2.1-1-2.1-3.1
		c0-1.5,0.3-3.2,2.1-3.2c1.8,0,2,1.6,2,2.9v0.4H115.1z M117.3,41.6v-0.3c0-0.7-0.2-1.5-1-1.5c-1,0-1.1,1.2-1.1,1.6v0.2H117.3z"/>
</g>
<g class="st1">
	<path class="st2" d="M119.3,39.2h0.9v0.7h0c0.2-0.5,0.9-0.9,1.5-0.9c1.6,0,1.6,1.2,1.6,1.9v4.2h-0.9v-4.1c0-0.5,0-1.2-0.9-1.2
		c-0.5,0-1.2,0.3-1.2,1.2v4.1h-0.9V39.2z"/>
</g>
<g class="st1">
	<path class="st2" d="M124.7,37.5h0.9v1.7h1v0.7h-1v3.8c0,0.5,0.1,0.7,0.6,0.7c0.2,0,0.3,0,0.4,0v0.8c-0.1,0-0.4,0.1-0.8,0.1
		c-1,0-1.2-0.4-1.2-1.2v-4.1h-0.9v-0.7h0.9V37.5z"/>
</g>
<g class="st1">
	<path class="st2" d="M87.9,51.5H87v-0.7h0.9v-0.7c0-0.9,0.4-1.4,1.3-1.4h0.7v0.8h-0.4c-0.4,0-0.6,0.2-0.6,0.6v0.7h1v0.7h-1v5.3
		h-0.9V51.5z"/>
	<path class="st2" d="M94.4,56.8h-0.9v-0.7h0c-0.2,0.5-0.9,0.9-1.5,0.9c-1.6,0-1.6-1.2-1.6-1.9v-4.2h0.9v4.1c0,0.5,0,1.2,0.9,1.2
		c0.5,0,1.2-0.3,1.2-1.2v-4.1h0.9V56.8z"/>
	<path class="st2" d="M95.7,48.8h0.9v8h-0.9V48.8z"/>
	<path class="st2" d="M98.2,51.5h-0.9v-0.7h0.9v-0.7c0-0.9,0.4-1.4,1.3-1.4h0.7v0.8h-0.4c-0.4,0-0.6,0.2-0.6,0.6v0.7h1v0.7h-1v5.3
		h-0.9V51.5z M100.9,48.8h0.9v1.1h-0.9V48.8z M100.9,50.8h0.9v6h-0.9V50.8z"/>
	<path class="st2" d="M103.2,48.8h0.9v8h-0.9V48.8z"/>
	<path class="st2" d="M105.4,48.8h0.9v8h-0.9V48.8z"/>
	<path class="st2" d="M107.7,50.8h0.9v0.7h0c0.2-0.5,0.9-0.9,1.5-0.9c0.7,0,1.1,0.3,1.3,1c0.3-0.5,0.8-1,1.4-1
		c1.6,0,1.6,1.2,1.6,1.9v4.2h-0.9v-4.1c0-0.5,0-1.2-0.8-1.2c-0.4,0-1.1,0.3-1.1,1.2v4.1h-0.9v-4.1c0-0.5,0-1.2-0.8-1.2
		c-0.4,0-1.1,0.3-1.1,1.2v4.1h-0.9V50.8z"/>
	<path class="st2" d="M116.5,53.9c0,0.9,0,2.3,1.2,2.3c0.9,0,1-0.9,1-1.4h0.9c0,0.6-0.4,2.1-2,2.1c-1.5,0-2.1-1-2.1-3.1
		c0-1.5,0.3-3.2,2.1-3.2c1.8,0,2,1.6,2,2.9v0.4H116.5z M118.7,53.2v-0.3c0-0.7-0.2-1.5-1-1.5c-1,0-1.1,1.2-1.1,1.6v0.2H118.7z"/>
	<path class="st2" d="M120.7,50.8h0.9v0.7h0c0.2-0.5,0.9-0.9,1.5-0.9c1.6,0,1.6,1.2,1.6,1.9v4.2h-0.9v-4.1c0-0.5,0-1.2-0.9-1.2
		c-0.5,0-1.2,0.3-1.2,1.2v4.1h-0.9V50.8z"/>
	<path class="st2" d="M126.1,49.1h0.9v1.7h1v0.7h-1v3.8c0,0.5,0.1,0.7,0.6,0.7c0.2,0,0.3,0,0.4,0v0.8c-0.1,0-0.4,0.1-0.8,0.1
		c-1,0-1.2-0.4-1.2-1.2v-4.1h-0.9v-0.7h0.9V49.1z"/>
</g>
</svg>
